<svg xmlns="http://www.w3.org/2000/svg" width="720" height="980" viewBox="0 0 720 980" role="img" aria-labelledby="mt md"><title id="mt">Mobile GitHub engineering telemetry for ketpatil77</title><desc id="md">Responsive mobile dashboard with contribution, repository, pull request, and language metrics.</desc><defs><linearGradient id="mb" x2="1" y2="1"><stop stop-color="#050914"/><stop offset="1" stop-color="#0c1831"/></linearGradient><linearGradient id="ma" x2="0" y2="1"><stop stop-color="#3b82f6" stop-opacity=".45"/><stop offset="1" stop-color="#3b82f6" stop-opacity="0"/></linearGradient><filter id="mg"><feGaussianBlur stdDeviation="3" result="b"/><feMerge><feMergeNode in="b"/><feMergeNode in="SourceGraphic"/></feMerge></filter></defs><rect width="720" height="980" rx="18" fill="url(#mb)"/><g font-family="Consolas,Menlo,monospace"><text x="55" y="57" fill="#f8fafc" font-size="22" font-weight="700">LIVE TELEMETRY / MOBILE</text><text x="665" y="57" fill="#38bdf8" font-size="11" text-anchor="end">SYNC 24H</text><g transform="translate(55 105)"><rect width="285" height="96" rx="8" fill="#0f172a" stroke="#1e3a8a"><animate attributeName="stroke-opacity" values=".45;1;.45" dur="3s" repeatCount="indefinite"/></rect><text x="18" y="31" fill="#64748b" font-size="12">CONTRIBUTIONS / 12M</text><text x="18" y="72" fill="#f8fafc" font-size="32" font-weight="700">1089</text></g><g transform="translate(370 105)"><rect width="285" height="96" rx="8" fill="#0f172a" stroke="#1e3a8a"><animate attributeName="stroke-opacity" values=".45;1;.45" dur="3s" repeatCount="indefinite"/></rect><text x="18" y="31" fill="#64748b" font-size="12">PUBLIC REPOSITORIES</text><text x="18" y="72" fill="#f8fafc" font-size="32" font-weight="700">23</text></g><g transform="translate(55 230)"><rect width="285" height="96" rx="8" fill="#0f172a" stroke="#1e3a8a"><animate attributeName="stroke-opacity" values=".45;1;.45" dur="3s" repeatCount="indefinite"/></rect><text x="18" y="31" fill="#64748b" font-size="12">MERGED PULL REQUESTS</text><text x="18" y="72" fill="#f8fafc" font-size="32" font-weight="700">87</text></g><g transform="translate(370 230)"><rect width="285" height="96" rx="8" fill="#0f172a" stroke="#1e3a8a"><animate attributeName="stroke-opacity" values=".45;1;.45" dur="3s" repeatCount="indefinite"/></rect><text x="18" y="31" fill="#64748b" font-size="12">OPEN PULL REQUESTS</text><text x="18" y="72" fill="#f8fafc" font-size="32" font-weight="700">21</text></g><text x="55" y="390" fill="#64748b" font-size="13">52-WEEK CONTRIBUTION VELOCITY</text><path d="M55 620H665M55 435V620" stroke="#334155"/><polygon points="55,620 55.0,619.6 67.0,619.3 78.9,619.6 90.9,619.3 102.8,619.6 114.8,618.9 126.8,619.3 138.7,618.6 150.7,619.6 162.6,619.6 174.6,618.9 186.6,619.3 198.5,619.6 210.5,619.3 222.5,619.3 234.4,618.6 246.4,618.6 258.3,618.9 270.3,620.0 282.3,616.8 294.2,619.6 306.2,619.6 318.1,619.6 330.1,618.9 342.1,619.6 354.0,620.0 366.0,619.6 377.9,620.0 389.9,607.5 401.9,617.5 413.8,618.9 425.8,620.0 437.7,619.3 449.7,618.2 461.7,617.1 473.6,592.6 485.6,604.7 497.5,611.1 509.5,599.0 521.5,612.2 533.4,620.0 545.4,620.0 557.4,620.0 569.3,619.6 581.3,620.0 593.2,611.8 605.2,613.6 617.2,460.0 629.1,530.2 641.1,620.0 653.0,620.0 665.0,620.0 665,620" fill="url(#ma)"/><polyline points="55.0,619.6 67.0,619.3 78.9,619.6 90.9,619.3 102.8,619.6 114.8,618.9 126.8,619.3 138.7,618.6 150.7,619.6 162.6,619.6 174.6,618.9 186.6,619.3 198.5,619.6 210.5,619.3 222.5,619.3 234.4,618.6 246.4,618.6 258.3,618.9 270.3,620.0 282.3,616.8 294.2,619.6 306.2,619.6 318.1,619.6 330.1,618.9 342.1,619.6 354.0,620.0 366.0,619.6 377.9,620.0 389.9,607.5 401.9,617.5 413.8,618.9 425.8,620.0 437.7,619.3 449.7,618.2 461.7,617.1 473.6,592.6 485.6,604.7 497.5,611.1 509.5,599.0 521.5,612.2 533.4,620.0 545.4,620.0 557.4,620.0 569.3,619.6 581.3,620.0 593.2,611.8 605.2,613.6 617.2,460.0 629.1,530.2 641.1,620.0 653.0,620.0 665.0,620.0" fill="none" stroke="#38bdf8" stroke-width="4" filter="url(#mg)" class="trace"/><text x="55" y="655" fill="#64748b" font-size="11">T-52W</text><text x="665" y="655" fill="#64748b" font-size="11" text-anchor="end">NOW / PEAK 449</text><text x="55" y="697" fill="#64748b" font-size="13">LANGUAGE SIGNAL</text><text x="55" y="735" fill="#94a3b8" font-size="14">TYPESCRIPT</text><rect x="220" y="721" width="420" height="14" rx="7" fill="#172554"/><rect x="220" y="721" width="152.7" height="14" rx="7" fill="#38bdf8"/><text x="665" y="735" fill="#e2e8f0" font-size="13" text-anchor="end">36.4%</text><text x="55" y="777" fill="#94a3b8" font-size="14">PYTHON</text><rect x="220" y="763" width="420" height="14" rx="7" fill="#172554"/><rect x="220" y="763" width="95.5" height="14" rx="7" fill="#3b82f6"/><text x="665" y="777" fill="#e2e8f0" font-size="13" text-anchor="end">22.7%</text><text x="55" y="819" fill="#94a3b8" font-size="14">JAVASCRIPT</text><rect x="220" y="805" width="420" height="14" rx="7" fill="#172554"/><rect x="220" y="805" width="95.5" height="14" rx="7" fill="#8b5cf6"/><text x="665" y="819" fill="#e2e8f0" font-size="13" text-anchor="end">22.7%</text><text x="55" y="861" fill="#94a3b8" font-size="14">HTML</text><rect x="220" y="847" width="420" height="14" rx="7" fill="#172554"/><rect x="220" y="847" width="38.2" height="14" rx="7" fill="#f59e0b"/><text x="665" y="861" fill="#e2e8f0" font-size="13" text-anchor="end">9.1%</text><text x="55" y="903" fill="#94a3b8" font-size="14">PHP</text><rect x="220" y="889" width="420" height="14" rx="7" fill="#172554"/><rect x="220" y="889" width="38.2" height="14" rx="7" fill="#22d3ee"/><text x="665" y="903" fill="#e2e8f0" font-size="13" text-anchor="end">9.1%</text></g><style>.trace{stroke-dasharray:900;animation:d 3s ease-out both}@keyframes d{from{stroke-dashoffset:900}to{stroke-dashoffset:0}}@media(prefers-reduced-motion:reduce){.trace{animation:none}}</style></svg>